<svg xmlns="http://www.w3.org/2000/svg" viewBox="0 0 242 80" width="242" height="80">
  <path fill="#f4ece3" d="M25.248 14.144L25.248 14.144Q30.336 14.144 34.496 15.888Q38.656 17.632 41.648 20.816Q44.64 24 46.272 28.336Q47.904 32.672 47.904 37.888L47.904 37.888Q47.904 42.976 46.288 47.232Q44.672 51.488 41.696 54.592L41.696 54.592Q38.72 57.696 34.656 59.392L34.656 59.392Q34.976 59.744 35.328 60.064L35.328 60.064Q37.088 61.792 39.184 62.544Q41.28 63.296 43.776 63.296L43.776 63.296Q45.152 63.296 45.872 63.072Q46.592 62.848 47.088 62.56Q47.584 62.272 48.16 62.016L48.16 62.016Q48.576 61.856 48.816 62.064Q49.056 62.272 49.056 62.688L49.056 62.688Q49.056 62.944 48.944 63.312Q48.832 63.68 48.576 64.16L48.576 64.16L47.232 66.784Q46.752 67.648 46.096 68Q45.44 68.352 44.192 68.352L44.192 68.352Q41.344 68.352 38.768 67.28Q36.192 66.208 33.952 63.872L33.952 63.872Q32.544 62.432 31.328 60.48L31.328 60.48Q28.512 61.152 25.344 61.152L25.344 61.152Q20.32 61.152 16.192 59.408Q12.064 57.664 9.072 54.48Q6.08 51.296 4.464 46.944Q2.848 42.592 2.848 37.376L2.848 37.376Q2.848 32.288 4.464 28.048Q6.08 23.808 9.04 20.688Q12 17.568 16.128 15.856Q20.256 14.144 25.248 14.144M40.256 42.048L40.256 42.048Q40.256 37.824 39.408 34.032Q38.56 30.24 37.056 27.12Q35.552 24 33.472 21.728Q31.392 19.456 28.88 18.208Q26.368 16.96 23.584 16.96L23.584 16.96Q19.712 16.96 16.784 18.912Q13.856 20.864 12.24 24.512Q10.624 28.16 10.624 33.248L10.624 33.248Q10.624 37.472 11.456 41.264Q12.288 45.056 13.792 48.192Q15.296 51.328 17.36 53.632Q19.424 55.936 21.92 57.184Q24.416 58.432 27.2 58.432L27.2 58.432Q28.672 58.432 29.984 58.144L29.984 58.144Q29.92 57.984 29.824 57.824L29.824 57.824Q27.968 54.112 26.56 48.8L26.56 48.8Q26.368 48.032 26.592 47.488Q26.816 46.944 27.456 46.816Q28.096 46.688 28.512 47.04Q28.928 47.392 29.12 48.16L29.12 48.16Q30.496 52.512 32.032 55.424L32.032 55.424Q32.48 56.32 32.96 57.088L32.96 57.088Q33.536 56.8 34.048 56.448L34.048 56.448Q36.992 54.496 38.624 50.816Q40.256 47.136 40.256 42.048M74.8 56.288L74.8 56.288L74.8 55.296Q71.536 58.112 69.008 59.328L69.008 59.328Q66.16 60.736 63.568 60.736L63.568 60.736Q59.568 60.736 57.12 58.192Q54.672 55.648 54.672 51.296L54.672 51.296L54.672 35.744Q54.672 35.008 54.432 34.688Q54.192 34.368 53.616 34.304L53.616 34.304L51.44 34.24Q50.896 34.144 50.672 33.92Q50.448 33.696 50.448 33.312L50.448 33.312Q50.448 32.896 50.72 32.624Q50.992 32.352 51.696 32.128L51.696 32.128L57.008 30.24Q58.064 29.856 58.688 29.712Q59.312 29.568 59.728 29.568L59.728 29.568Q60.592 29.568 60.992 30Q61.392 30.432 61.392 31.2L61.392 31.2L61.392 50.272Q61.392 53.472 62.96 55.056Q64.528 56.64 67.088 56.64L67.088 56.64Q68.688 56.64 70.512 55.824Q72.336 55.008 74.448 53.216L74.448 53.216L74.64 53.056L74.64 35.744Q74.64 35.008 74.4 34.688Q74.16 34.368 73.584 34.304L73.584 34.304L71.408 34.24Q70.864 34.144 70.64 33.92Q70.416 33.696 70.416 33.312L70.416 33.312Q70.416 32.896 70.688 32.624Q70.96 32.352 71.664 32.128L71.664 32.128L76.976 30.24Q77.968 29.888 78.608 29.728Q79.248 29.568 79.76 29.568L79.76 29.568Q80.56 29.568 80.96 30Q81.36 30.432 81.36 31.2L81.36 31.2L81.36 55.616Q81.36 56.48 81.68 56.912Q82 57.344 82.64 57.504L82.64 57.504L84.08 57.824Q84.656 57.984 84.928 58.256Q85.2 58.528 85.2 58.944L85.2 58.944Q85.2 59.424 84.848 59.712Q84.496 60 83.76 60L83.76 60L78.096 60Q76.624 60 75.712 59.024Q74.8 58.048 74.8 56.288M88.896 53.344L88.896 53.344Q88.896 49.568 92.272 47.136Q95.648 44.704 101.664 44.704L101.664 44.704Q103.84 44.704 105.664 45.088L105.664 45.088Q106.656 45.312 107.52 45.6L107.52 45.6L107.52 36.96Q107.52 34.176 106.128 32.704Q104.736 31.232 102.208 31.232L102.208 31.232Q99.776 31.232 98.56 32.24Q97.344 33.248 97.344 34.656L97.344 34.656L97.344 37.152Q97.344 38.72 96.32 39.536Q95.296 40.352 93.536 40.352L93.536 40.352Q91.968 40.352 91.152 39.552Q90.336 38.752 90.336 37.376L90.336 37.376Q90.336 35.424 91.872 33.568Q93.408 31.712 96.336 30.512Q99.264 29.312 103.456 29.312L103.456 29.312Q108.896 29.312 111.552 31.648Q114.208 33.984 114.208 37.92L114.208 37.92L114.208 55.232Q114.208 56.288 114.608 56.752Q115.008 57.216 115.712 57.216L115.712 57.216Q116.48 57.216 116.832 56.864Q117.184 56.512 117.44 56.16L117.44 56.16Q117.6 55.936 117.76 55.792Q117.92 55.648 118.176 55.648L118.176 55.648Q118.528 55.648 118.688 55.888Q118.848 56.128 118.848 56.544L118.848 56.544Q118.848 57.472 118.208 58.432Q117.568 59.392 116.352 60.064Q115.136 60.736 113.344 60.736L113.344 60.736Q110.816 60.736 109.376 59.52L109.376 59.52Q108.16 58.528 107.968 56.8L107.968 56.8Q106.432 58.336 104.352 59.328L104.352 59.328Q101.376 60.736 98.048 60.736L98.048 60.736Q93.984 60.736 91.44 58.736Q88.896 56.736 88.896 53.344M107.52 54.976L107.52 47.552Q106.592 47.2 105.664 46.944L105.664 46.944Q104.256 46.592 102.592 46.592L102.592 46.592Q99.424 46.592 97.632 48.112Q95.84 49.632 95.84 52.256L95.84 52.256Q95.84 54.816 97.312 56.192Q98.784 57.568 101.056 57.568L101.056 57.568Q103.168 57.568 105.152 56.608L105.152 56.608Q106.464 55.968 107.52 54.976L107.52 54.976M131.44 31.2L131.44 31.2L131.696 36.48Q131.856 36.064 132.016 35.648L132.016 35.648Q133.36 32.512 135.504 30.896Q137.648 29.28 140.08 29.28L140.08 29.28Q142.96 29.28 144.56 30.88Q146.16 32.48 146.16 35.296L146.16 35.296Q146.16 37.504 145.216 38.64Q144.272 39.776 142.8 39.776L142.8 39.776Q141.296 39.776 140.464 38.928Q139.632 38.08 139.632 36.576L139.632 36.576L139.632 35.488Q139.632 34.4 139.12 33.872Q138.608 33.344 137.456 33.344L137.456 33.344Q136.08 33.344 134.768 34.448Q133.456 35.552 132.624 37.744Q131.792 39.936 131.792 43.296L131.792 43.296L131.792 55.584Q131.792 56.384 132.16 56.816Q132.528 57.248 133.424 57.376L133.424 57.376L136.304 57.76Q136.944 57.856 137.28 58.144Q137.616 58.432 137.616 58.944L137.616 58.944Q137.616 59.424 137.232 59.712Q136.848 60 136.144 60L136.144 60L122.576 60Q121.84 60 121.504 59.712Q121.168 59.424 121.168 58.944L121.168 58.944Q121.168 58.56 121.424 58.288Q121.68 58.016 122.256 57.824L122.256 57.824L123.76 57.504Q124.4 57.344 124.72 56.912Q125.04 56.48 125.04 55.616L125.04 55.616L125.04 35.776Q125.04 35.04 124.8 34.72Q124.56 34.4 124.016 34.336L124.016 34.336L121.84 34.24Q121.296 34.176 121.056 33.936Q120.816 33.696 120.816 33.344L120.816 33.344Q120.816 32.928 121.088 32.656Q121.36 32.384 122.064 32.128L122.064 32.128L127.312 30.304Q128.56 29.824 129.168 29.68Q129.776 29.536 130.16 29.536L130.16 29.536Q130.736 29.536 131.04 29.92Q131.344 30.304 131.44 31.2M160.896 60L149.312 60Q148.576 60 148.32 59.712Q148.064 59.424 148.064 58.944L148.064 58.944Q148.064 58.56 148.32 58.288Q148.576 58.016 149.152 57.824L149.152 57.824L150.656 57.504Q151.296 57.312 151.616 56.896Q151.936 56.48 151.936 55.616L151.936 55.616L151.936 18.976Q151.936 18.272 151.696 17.936Q151.456 17.6 150.912 17.568L150.912 17.568L148.736 17.472Q148.192 17.376 147.952 17.152Q147.712 16.928 147.712 16.544L147.712 16.544Q147.712 16.128 147.984 15.872Q148.256 15.616 148.96 15.36L148.96 15.36L154.304 13.472Q155.296 13.12 155.92 12.96Q156.544 12.8 157.056 12.8L157.056 12.8Q157.856 12.8 158.272 13.248Q158.688 13.696 158.688 14.464L158.688 14.464L158.688 44.352L170.24 34.912Q171.36 34.016 171.248 33.312Q171.136 32.608 169.888 32.32L169.888 32.32L168.576 32.064Q168 31.904 167.776 31.664Q167.552 31.424 167.552 31.008L167.552 31.008Q167.552 30.496 167.92 30.224Q168.288 29.952 168.96 29.952L168.96 29.952L179.488 29.952Q180.128 29.952 180.512 30.224Q180.896 30.496 180.896 30.976Q180.896 31.456 180.576 31.76Q180.256 32.064 179.264 32.288L179.264 32.288Q177.664 32.608 176.528 33.216Q175.392 33.824 173.568 35.296L173.568 35.296L167.296 40.352L177.888 55.328Q178.784 56.544 179.424 56.992Q180.064 57.44 181.344 57.728L181.344 57.728Q182.016 57.952 182.304 58.272Q182.592 58.592 182.592 59.008L182.592 59.008Q182.592 59.456 182.208 59.728Q181.824 60 181.184 60L181.184 60L169.152 60Q168.576 60 168.224 59.712Q167.872 59.424 167.872 58.976L167.872 58.976Q167.872 58.592 168.08 58.352Q168.288 58.112 168.832 57.952L168.832 57.952L170.048 57.696Q171.104 57.472 171.184 56.944Q171.264 56.416 170.304 55.072L170.304 55.072L162.592 44.16L158.688 47.296L158.688 55.616Q158.688 56.48 159.008 56.896Q159.328 57.312 159.936 57.504L159.936 57.504L161.376 57.824Q162.368 58.176 162.368 58.912L162.368 58.912Q162.368 60 160.896 60L160.896 60"/>
  <path fill="#c47a4a" d="M209.12 20.8L209.12 20.8Q209.44 21.728 210.128 23.68Q210.816 25.632 211.776 28.256L211.776 28.256Q212.544 30.4 213.408 32.768L213.408 32.768L222.592 20.48Q224.48 18.176 226 16.784Q227.52 15.392 228.944 14.752Q230.368 14.112 231.936 14.112L231.936 14.112Q233.632 14.112 234.512 15.04Q235.392 15.968 235.392 17.28L235.392 17.28Q235.392 18.976 234.256 20.048Q233.12 21.12 231.2 21.184L231.2 21.184Q230.336 21.216 229.648 21.184Q228.96 21.152 228.128 21.312L228.128 21.312Q227.104 21.472 226.16 21.968Q225.216 22.464 224.24 23.424Q223.264 24.384 222.048 25.952L222.048 25.952L214.592 36Q215.296 37.952 216.032 39.904L216.032 39.904Q217.152 42.944 218.192 45.728Q219.232 48.512 220.096 50.736Q220.96 52.96 221.504 54.272L221.504 54.272Q221.824 55.2 222.272 55.76Q222.72 56.32 223.376 56.64Q224.032 56.96 224.992 57.216L224.992 57.216Q226.4 57.696 226.4 58.592L226.4 58.592Q226.4 59.2 225.872 59.6Q225.344 60 224.448 60L224.448 60L210.944 60Q209.92 60 209.536 59.648Q209.152 59.296 209.152 58.752L209.152 58.752Q209.184 58.24 209.52 57.856Q209.856 57.472 210.656 57.216L210.656 57.216L211.968 56.96Q212.928 56.64 213.104 55.936Q213.28 55.232 212.832 53.984L212.832 53.984Q212.544 53.184 211.856 51.28Q211.168 49.376 210.208 46.72Q209.248 44.064 208.128 41.024L208.128 41.024Q208.096 40.96 208.064 40.896L208.064 40.896L199.072 52.544Q197.536 54.528 197.568 55.616Q197.6 56.704 198.784 57.024L198.784 57.024L199.872 57.312Q200.416 57.472 200.688 57.744Q200.96 58.016 200.96 58.528L200.96 58.528Q200.96 59.168 200.416 59.584Q199.872 60 199.04 60L199.04 60L188.224 60Q187.392 60 186.992 59.648Q186.592 59.296 186.592 58.72Q186.592 58.144 186.928 57.792Q187.264 57.44 188.16 57.088L188.16 57.088Q188.992 56.896 189.84 56.544Q190.688 56.192 191.536 55.632Q192.384 55.072 193.264 54.256Q194.144 53.44 195.04 52.352L195.04 52.352L206.88 37.728Q206.368 36.32 205.856 34.912L205.856 34.912Q204.704 31.84 203.632 29.04Q202.56 26.24 201.712 24.064Q200.864 21.888 200.352 20.704L200.352 20.704Q199.808 19.392 199.184 18.848Q198.56 18.304 197.28 17.984L197.28 17.984Q196.48 17.696 196.144 17.36Q195.808 17.024 195.808 16.544L195.808 16.544Q195.84 15.904 196.384 15.552Q196.928 15.2 197.824 15.2L197.824 15.2L211.52 15.2Q212.48 15.2 212.896 15.52Q213.312 15.84 213.312 16.448L213.312 16.448Q213.312 16.992 212.896 17.376Q212.48 17.76 211.712 18.048L211.712 18.048L210.08 18.368Q209.28 18.56 209.04 19.184Q208.8 19.808 209.12 20.8"/>
</svg>
